<svg width="410" height="409" xmlns="http://www.w3.org/2000/svg">

 <g>
  <title>background</title>
  <rect fill="none" id="canvas_background" height="411" width="412" y="-1" x="-1"/>
 </g>
 <g>
  <title>Layer 1</title>
  <ellipse ry="200" rx="200" id="svg_3" cy="205.5" cx="206" fill-opacity="null" stroke-opacity="null" stroke-width="8" stroke="#7FFF00" fill="none"/>
  <g stroke="null" id="svg_1">
   <path stroke="null" id="svg_2" d="m327.724485,123.563061c-0.48498,0 -3.9045,0.01208 -6.6445,0.181206l0,-7.187848c0,-8.703941 -4.7128,-15.266628 -11.795699,-15.266628c-0.80282,0 -1.3015,0.087583 -2.11254,0.265769c-0.57266,0.123824 -56.123417,12.648197 -99.733254,51.094126c-8.4392,-7.441537 -17.878499,-13.910601 -26.098499,-19.506854l0,-7.586502c0,-13.400203 -1.47686,-27.084296 -20.106119,-34.241944l-23.802379,-9.162997c-2.48244,-0.987574 -4.91008,-1.485891 -7.261,-1.485891c-11.173719,0 -17.840139,11.147205 -17.840139,21.925958c0,0.036241 0.00548,0.066442 0.01096,0.102684c-2.78658,-0.755026 -4.39222,-1.117439 -4.48812,-1.135559c-0.80556,-0.175166 -2.66328,-0.262749 -3.4661,-0.262749c-7.07742,-0.00604 -13.467099,6.556647 -13.467099,15.257567l0,7.187848c-2.74,-0.166106 -6.15678,-0.181206 -6.6445,-0.181206c-8.42002,0 -15.275499,7.550261 -15.275499,16.831042l0,132.495c0,8.199583 8.22,15.04314 13.699999,16.529031l0,14.4663c0,9.283801 7.65282,17.392781 16.075579,17.392781l86.241495,0c2.43038,3.020104 7.7131,9.060313 13.845219,9.060313l17.640119,0c6.12664,0 11.412099,-6.040209 13.842479,-9.060313l89.545935,0c8.42276,0 14.889159,-8.10898 14.889159,-17.389761l0,-15.6079c5.48,-2.624471 8.22,-8.528775 8.22,-15.387432l0,-132.495c0,-9.280781 -6.85274,-16.831042 -15.275499,-16.831042zm-7.83914,185.630717l-84.789295,0c36.129638,-15.100522 72.283936,-18.854512 85.983935,-19.355849l0,14.043485c0,2.117093 0.72884,5.312364 -1.19464,5.312364zm-226.225347,-5.309344l0,-13.904561c19.179999,0.791267 52.955977,4.113382 86.603175,19.213904l-81.487595,0c-1.918,0 -5.11558,-3.19527 -5.11558,-5.309344zm-10.959999,-163.490331c0,-2.114073 0.61102,-3.835533 2.53176,-3.835533c0.1233,0 2.94824,0.01208 5.68824,0.220468l0,112.275401c0,8.788504 6.55956,16.876343 13.601359,18.419617c3.63324,0.794287 25.895739,5.877123 51.533917,18.896793c-34.858278,-9.235479 -65.184596,-9.643193 -70.039876,-9.643193c-1.918,0 -3.3154,-1.72146 -3.3154,-3.838553l0,-132.495zm22.087139,-26.090682c0.20824,0.045302 8.05286,1.772801 19.012859,5.874103l0,84.411918c0,2.089912 1.67962,4.025799 3.31266,5.085856c1.63852,1.063077 3.99766,1.096298 5.65262,0.087583l18.859419,-11.352572l20.322579,26.649401c1.03846,1.368107 2.59478,2.117093 4.1511,2.117093c0.61102,0 1.17272,-0.117784 1.77004,-0.356372c2.12076,-0.848649 3.47158,-3.068426 3.47158,-5.553972l0,-73.032164c5.48,4.699282 13.699999,9.969365 21.919999,15.867628l0,0.88187l0,135.708391c-41.099998,-33.592621 -89.082875,-44.733786 -94.754675,-45.972029c-1.22478,-0.268789 -3.88532,-2.769436 -3.88532,-5.668736l0,-132.49802c0,-1.44965 -0.12878,-2.174475 0.16714,-2.249978zm25.402539,-21.826294c1.10696,0 2.33722,0.262749 3.699,0.806368l23.692779,9.187158c11.195639,4.300629 12.798539,10.325737 12.798539,23.082658l0,79.455927l-13.406819,-17.912239c-1.04394,-1.380188 -2.46052,-2.117093 -4.00862,-2.117093c-0.8768,0 -2.27968,0.241608 -3.09346,0.733885l-15.111099,8.873067l0,-77.764668c0,-5.131157 0.5617,-17.142113 -10.773679,-17.142113c-0.40552,0 -0.53704,0.054362 -0.92886,0.151005c0.70144,-3.530502 3.05784,-7.353954 7.13222,-7.353954zm179.93031,156.574292c0,3.008024 -1.3015,5.399947 -2.5208,5.668736c-5.66632,1.238243 -52.279197,12.385448 -93.379195,45.975049l0,-135.711411l0,-0.88187c41.099998,-37.503656 95.130055,-49.680717 95.809575,-49.822662c0.16988,0.099663 0.09042,0.821468 0.09042,2.274139l0,132.49802zm18.656659,27.676237c-4.85802,0 -35.239138,0.401674 -70.094676,9.637153c25.629959,-13.01967 46.782757,-18.102506 50.415997,-18.893773c7.04454,-1.537233 11.982019,-9.628093 11.982019,-18.419617l0,-112.272381c2.74,-0.205367 6.93768,-0.217448 7.06098,-0.217448c1.92074,0 3.89902,1.718439 3.89902,3.835533l0,132.495c0,2.114073 -1.34534,3.835533 -3.26334,3.835533z" fill="#7FFF00"/>
  </g>
 </g>
</svg>
