<svg width="411" height="410.787" xmlns="http://www.w3.org/2000/svg">
 <defs>
  <style type="text/css">
   <![CDATA[
    .fil0 {fill:#FF4500;fill-rule:nonzero}
   ]]>
  </style>
 </defs>
 <g>
  <title>background</title>
  <rect fill="none" id="canvas_background" height="412.787" width="413" y="-1" x="-1"/>
 </g>
 <g>
  <title>Layer 1</title>
  <ellipse ry="200" rx="200" id="svg_6" cy="205.393497" cx="205.5" stroke-width="8" stroke="#FF4500" fill="none"/>
  <g stroke="#FF4500" fill="#FF4500" id="svg_5">
   <g stroke="#FF4500" fill="#FF4500" id="Layer_x0020_1">
    <metadata stroke="#FF4500" fill="#FF4500" transform="translate(0,-0.0000012817382639696007) translate(0.000011444091796875,0) translate(0,-0.0000012817382639696007) translate(0,-0.0000012817382639696007) translate(-0.9999961853027344,0) translate(0,-0.00000762939453125) translate(0.000003814697265625,0) translate(0,-0.49997711181640625) translate(0.49997711181640625,0) translate(6,0) translate(-99,-12) translate(0.0000152587890625,0) translate(-0.0000152587890625,0) translate(0,0.0000152587890625) translate(0,-0.0000152587890625) translate(0,0.24990081787109375) translate(-2.1004180908203125,0) translate(85,48) translate(-3,0) translate(-3,0) translate(3,0) translate(3,0) translate(3,0) translate(3,0) translate(6,0) translate(6,0) translate(3,0) translate(3,0) translate(3,0) translate(3,0) translate(3,0) translate(3,0) translate(6,0) translate(6,0) translate(17,0) translate(3,0) translate(0.088348388671875,0) translate(0,-19.749908447265625) translate(0,38.49981689453125) translate(-65.1125259399414,0) translate(31,0) translate(184,81) translate(158.024169921875,348.5372619628906) scale(1.295688271522522,1.1942353248596191) translate(-158.024169921875,-348.5372619628906) translate(121.96156311035156,291.8497314453125) scale(1.086562156677246,1.0959182977676392) translate(-121.96156311035156,-291.8497314453125) translate(112.24537658691406,65.51876068115234) scale(1.0832873582839966,1) translate(-112.24537658691406,-65.51876068115234) translate(37.32454299926758,257.3282470703125) scale(1,0.9467250108718872) translate(-37.32454299926758,-257.3282470703125) translate(37.32454299926758,71.0215072631836) scale(1,0.9477465152740479) translate(-37.32454299926758,-71.0215072631836) translate(37.32454299926758,74.93721008300781) scale(0.9565439224243164,1) translate(-37.32454299926758,-74.93721008300781) " id="CorelCorpID_0Corel-Layer"/>
    <path stroke="#FF4500" fill="#FF4500" id="svg_1" d="m348.576174,195.323079l0,20.013594c-6.605217,0.127319 -12.018266,1.84386 -16.195164,5.14724c-4.138881,3.27037 -6.915699,7.70553 -8.324619,13.274795c-1.362048,5.61174 -2.111914,15.2413 -2.155854,28.893402c-0.090797,13.694494 -0.351504,22.654508 -0.793791,27.014148c-0.785009,6.95101 -2.199779,12.475557 -4.311694,16.620649c-2.111914,4.14514 -4.710055,7.45088 -7.794438,9.921929c-3.122458,2.513489 -7.082662,4.39979 -11.880597,5.696619c-3.25721,0.91957 -8.588244,1.381709 -15.975465,1.381709l-7.226196,0l0,-19.263795l4.007061,0c8.936801,0 14.836121,-1.546771 17.785723,-4.60021c2.905706,-3.06288 4.358566,-9.97145 4.358566,-20.690351c0,-20.430945 0.39543,-33.415802 1.189221,-38.897851c1.36498,-9.044799 4.133016,-16.330594 8.227957,-21.779644c4.141799,-5.397169 9.994232,-9.6272 17.563106,-12.683058c-9.90342,-4.47996 -16.85718,-10.42652 -20.908196,-17.839704c-4.051001,-7.413161 -6.072103,-19.890996 -6.072103,-37.475991c0,-15.951056 -0.178677,-25.460296 -0.615114,-28.600998c-0.620979,-5.482061 -2.290591,-9.29238 -5.105485,-11.473409c-2.776818,-2.136229 -8.280679,-3.22557 -16.423617,-3.22557l-4.007061,0l0,-19.256749l7.226196,0c8.406635,0 14.522678,0.627189 18.310025,1.966471c5.503861,1.801421 10.032307,4.81242 13.641007,9.044799c3.6087,4.27247 5.990088,9.6272 7.044586,16.0807c1.057416,6.48651 1.669613,17.085208 1.76041,31.777047c0.04394,14.741395 0.793791,24.875605 2.155854,30.487298c1.40892,5.61174 4.185738,10.04926 8.324619,13.317305c4.176956,3.2633 9.590006,4.97983 16.195164,5.149601l-0.000102,0.000023z" class="fil0"/>
   </g>
   <g stroke="#FF4500" fill="#FF4500" transform="matrix(-1.4588266701900923,0,0,-1.1743137287617007,458.8185433705054,507.8347428181924) " id="svg_4">
    <metadata stroke="#FF4500" fill="#FF4500" transform="translate(0,0.000001091478566195292) translate(-0.000007844723768357653,0) translate(0,0.000001091478566195292) translate(0,0.000001091478566195292) translate(0.6854797601699829,0) translate(0,0.000006496896276075859) translate(-0.000002614907771203434,0) translate(0,0.4257611036300659) translate(-0.3427255153656006,0) translate(-4.112894535064697,0) translate(64.91371154785156,9.168813705444336) translate(-0.000010005096555687487,0) translate(0.000010005096555687487,0) translate(0,-0.000011658749826892745) translate(0,0.000011658749826892745) translate(0,-0.19094116985797882) translate(1.3772315979003906,0) translate(85,48) translate(0,19.749908447265625) translate(-111,-1) translate(184,81) " id="svg_2"/>
    <path stroke="#FF4500" fill="#FF4500" id="svg_3" d="m271.721592,248.971652l0,17.0428c-4.52776,0.10842 -8.23831,1.57016 -11.1015,4.38319c-2.83713,2.78492 -4.74059,6.56173 -5.70638,11.3043c-0.93366,4.77874 -1.44768,12.9789 -1.4778,24.6045c-0.06224,11.6617 -0.24095,19.2917 -0.54413,23.0042c-0.53811,5.91921 -1.50791,10.6237 -2.95559,14.1535c-1.44768,3.52984 -3.22866,6.34488 -5.34295,8.44913c-2.14039,2.14039 -4.85504,3.74669 -8.14394,4.85102c-2.23276,0.78307 -5.88709,1.17661 -10.9509,1.17661l-4.95343,0l0,-16.4043l2.74677,0c6.12602,0 10.1699,-1.31717 12.1918,-3.91736c1.99181,-2.60823 2.98772,-8.4913 2.98772,-17.6191c0,-17.3982 0.27106,-28.4556 0.81519,-33.1239c0.93567,-7.7022 2.83311,-13.9065 5.64012,-18.5467c2.83913,-4.59602 6.85087,-8.19815 12.0392,-10.8004c-6.78862,-3.81496 -11.5553,-8.87882 -14.3322,-15.1916c-2.77689,-6.31276 -4.16232,-16.9384 -4.16232,-31.9131c0,-13.5833 -0.12248,-21.681 -0.42165,-24.3555c-0.42567,-4.66831 -1.57016,-7.91303 -3.49972,-9.77031c-1.90346,-1.81913 -5.67626,-2.74677 -11.2581,-2.74677l-2.74677,0l0,-16.3983l4.95343,0c5.7626,0 9.95504,0.53409 12.5512,1.67457c3.7728,1.53402 6.87697,4.09807 9.35067,7.7022c2.4737,3.63827 4.1061,8.19815 4.82894,13.6937c0.72484,5.52366 1.14449,14.5491 1.20673,27.0601c0.03012,12.5532 0.54413,21.1831 1.4778,25.9618c0.96579,4.77874 2.86925,8.55756 5.70638,11.3405c2.86323,2.7789 6.57378,4.24063 11.1015,4.3852l-0.00007,0.00002z" class="fil0"/>
   </g>
  </g>
 </g>
</svg>
