<svg width="412" height="410" xmlns="http://www.w3.org/2000/svg">

 <metadata>image/svg+xmlOpenclipart</metadata>
 <g>
  <title>background</title>
  <rect fill="none" id="canvas_background" height="412" width="414" y="-1" x="-1"/>
 </g>
 <g>
  <title>Layer 1</title>
  <ellipse ry="200" rx="200" id="svg_3" cy="205.000141" cx="206.00016" fill-opacity="null" stroke-opacity="null" stroke-width="8" stroke="#8A2BE2" fill="none"/>
  <g stroke="#8A2BE2" id="svg_4">
   <path stroke="#8A2BE2" stroke-linejoin="round" stroke-width="8.3605" fill="none" d="m108.057033,74.68529c-5.977862,0 -10.790152,5.521033 -10.790152,12.379301l0,157.906758c0,6.858768 4.81229,12.3768 10.790152,12.3768l129.869908,0c5.978298,0 10.787971,-5.518032 10.787971,-12.3768l0,-157.906758c0,-6.857268 -4.809674,-12.378301 -10.787971,-12.378301l-129.869908,0l0,-0.001001z" id="path1716"/>
   <path stroke="#8A2BE2" stroke-linejoin="round" fill-rule="evenodd" stroke-width="8" fill="none" d="m108.057033,74.68529c-5.977862,0 -10.790152,5.521033 -10.790152,12.379301l0,157.906758c0,6.858768 4.81229,12.3768 10.790152,12.3768l129.869908,0c5.978298,0 10.787971,-5.518032 10.787971,-12.3768l0,-157.906758c0,-6.857268 -4.809674,-12.378301 -10.787971,-12.378301l-129.869908,0l0,-0.001001z" id="rect1101"/>
   <path stroke="#8A2BE2" stroke-linejoin="round" stroke-width="8.3605" fill="none" d="m174.07122,152.649625c-5.973937,0 -10.787971,5.523034 -10.787971,12.381803l0,157.906758c0,6.858768 4.814034,12.3768 10.787971,12.3768l129.869908,0c5.978298,0 10.792332,-5.518032 10.792332,-12.3768l0,-157.906758c0,-6.858768 -4.814034,-12.381803 -10.792332,-12.381803l-129.869908,0z" id="path1094"/>
   <path stroke="#8A2BE2" stroke-linejoin="round" fill-rule="evenodd" stroke-width="8" fill="none" d="m174.07122,152.649625c-5.973937,0 -10.787971,5.523034 -10.787971,12.381803l0,157.906758c0,6.858768 4.814034,12.3768 10.787971,12.3768l129.869908,0c5.978298,0 10.792332,-5.518032 10.792332,-12.3768l0,-157.906758c0,-6.858768 -4.814034,-12.381803 -10.792332,-12.381803l-129.869908,0z" id="rect1111"/>
   <path stroke="#8A2BE2" stroke-linejoin="round" stroke-linecap="round" stroke-width="8.125" fill="none" d="m127.284767,161.753983c10.432124,105.678387 90.411742,98.579624 95.55377,98.028814l0,31.602105l40.297164,-45.758448l-40.297164,-45.660641l0,31.226319c-6.048389,0.818494 -62.552362,7.320116 -95.55377,-69.438149z" id="path1718"/>
   <path stroke="#8A2BE2" stroke-linejoin="round" fill-rule="evenodd" stroke-linecap="round" stroke-width="3.125" fill="#8A2BE2" d="m127.284767,161.753983c10.432124,105.678387 90.411742,98.579624 95.55377,98.028814l0,31.602105l40.297164,-45.758448l-40.297164,-45.660641l0,31.226319c-6.048389,0.818494 -62.552362,7.320116 -95.55377,-69.438149z" id="path1574"/>
  </g>
 </g>
</svg>
