<svg width="408" height="414.99999999999994" xmlns="http://www.w3.org/2000/svg">

 <g>
  <title>background</title>
  <rect fill="none" id="canvas_background" height="417" width="410" y="-1" x="-1"/>
 </g>
 <g>
  <title>Layer 1</title>
  <ellipse ry="200" rx="200" id="svg_7" cy="209.333324" cx="204.166673" stroke-width="8" stroke="red" fill="none"/>
  <g id="svg_9">
   <path stroke="red" fill="red" id="svg_1" d="m72.916657,347.533313l23.026317,-96.350694l137.236852,-145.012661l68.1579,72.019711l-137.236852,145.012661l-91.184217,24.330983zm39.605266,-86.618301l-13.81579,59.367599l56.184215,-14.59859l120.657904,-127.494353l-42.368424,-44.769009l-120.657904,127.494353z"/>
   <path stroke="red" fill="red" id="svg_2" d="m148.442979,317.362894c-5.526316,-24.330983 -23.94737,-43.79577 -46.973688,-49.635206l4.605263,-18.491547c29.473686,7.785915 52.500004,32.116898 59.868425,63.260557l-17.500001,4.866197z"/>
   <path stroke="red" fill="red" id="svg_3" d="m254.345618,142.053293l13.023685,13.761604l-119.828956,126.715761l-13.023685,-13.742139l119.828956,-126.735226z"/>
   <path stroke="red" fill="red" id="svg_4" d="m85.811395,333.907962l26.710528,-6.812675c-2.763158,-10.705633 -10.13158,-18.491547 -20.263159,-21.411265l-6.447369,28.223941z"/>
   <path stroke="red" fill="red" id="svg_5" d="m306.864043,172.350233l-68.1579,-72.019711l27.631581,-29.19718l4.605263,0.973239c33.157897,4.866197 58.947373,32.116898 63.552636,67.153514l0.921053,4.866197l-28.552634,28.223941zm-42.368424,-72.019711l42.368424,44.769009l8.289474,-8.759154c-4.605263,-22.384505 -21.184212,-39.902813 -42.368424,-44.769009l-8.289474,8.759154z"/>
  </g>
 </g>
</svg>
